<?xml version="1.0" encoding="UTF-8" standalone="no"?>
<!DOCTYPE svg PUBLIC "-//W3C//DTD SVG 1.1//EN"
 "http://www.w3.org/Graphics/SVG/1.1/DTD/svg11.dtd">
<!-- Generated by graphviz version 2.40.1 (20161225.0304)
 -->
<!-- Title: turing_machine Pages: 1 -->
<svg width="778pt" height="783pt"
 viewBox="0.00 0.00 777.84 782.66" xmlns="http://www.w3.org/2000/svg" xmlns:xlink="http://www.w3.org/1999/xlink">
<g id="graph0" class="graph" transform="scale(1 1) rotate(0) translate(4 778.6644)">
<title>turing_machine</title>
<polygon fill="#ffffff" stroke="transparent" points="-4,4 -4,-778.6644 773.8437,-778.6644 773.8437,4 -4,4"/>
<!-- q0 -->
<g id="node1" class="node">
<title>q0</title>
<ellipse fill="#cccccc" stroke="#cccccc" cx="344.2964" cy="-751.1661" rx="19.4968" ry="19.4968"/>
<ellipse fill="none" stroke="#cccccc" cx="344.2964" cy="-751.1661" rx="23.4965" ry="23.4965"/>
<text text-anchor="middle" x="344.2964" y="-747.4661" font-family="Times,serif" font-size="14.00" fill="#000000">q0</text>
</g>
<!-- q1 -->
<g id="node3" class="node">
<title>q1</title>
<ellipse fill="none" stroke="#555555" cx="344.2964" cy="-657.1696" rx="19.4965" ry="19.4965"/>
<text text-anchor="middle" x="344.2964" y="-653.4696" font-family="Times,serif" font-size="14.00" fill="#555555">q1</text>
</g>
<!-- q0&#45;&gt;q1 -->
<g id="edge1" class="edge">
<title>q0&#45;&gt;q1</title>
<path fill="none" stroke="#000000" d="M344.2964,-727.4468C344.2964,-715.2099 344.2964,-700.1562 344.2964,-687.1246"/>
<polygon fill="#000000" stroke="#000000" points="347.7965,-686.7599 344.2964,-676.7599 340.7965,-686.7599 347.7965,-686.7599"/>
<text text-anchor="middle" x="370.7964" y="-698.4678" font-family="Times,serif" font-size="14.00" fill="#000000"> &#160;$, $, R &#160;</text>
</g>
<!-- qA -->
<g id="node2" class="node">
<title>qA</title>
<ellipse fill="none" stroke="#555555" cx="40.2964" cy="-25.4481" rx="21.4044" ry="21.4044"/>
<ellipse fill="none" stroke="#555555" cx="40.2964" cy="-25.4481" rx="25.3963" ry="25.3963"/>
<text text-anchor="middle" x="40.2964" y="-21.7481" font-family="Times,serif" font-size="14.00" fill="#555555">qA</text>
</g>
<!-- q1&#45;&gt;q1 -->
<g id="edge2" class="edge">
<title>q1&#45;&gt;q1</title>
<path fill="none" stroke="#ef476f" d="M363.9743,-659.8524C373.4394,-660.1836 381.7947,-659.2893 381.7947,-657.1696 381.7947,-655.8778 378.692,-655.0411 374.1263,-654.6595"/>
<polygon fill="#ef476f" stroke="#ef476f" points="374.0325,-651.1575 363.9743,-654.4867 373.9133,-658.1565 374.0325,-651.1575"/>
<text text-anchor="middle" x="408.2947" y="-653.4696" font-family="Times,serif" font-size="14.00" fill="#ef476f"> &#160;1, 1, R &#160;</text>
</g>
<!-- q1&#45;&gt;q1 -->
<g id="edge3" class="edge">
<title>q1&#45;&gt;q1</title>
<path fill="none" stroke="#ffb20f" d="M363.6492,-661.0247C391.7246,-664.1265 434.7947,-662.8414 434.7947,-657.1696 434.7947,-652.1402 400.93,-650.5601 373.6833,-652.4292"/>
<polygon fill="#ffb20f" stroke="#ffb20f" points="373.3029,-648.9491 363.6492,-653.3144 373.9182,-655.922 373.3029,-648.9491"/>
<text text-anchor="middle" x="461.2947" y="-653.4696" font-family="Times,serif" font-size="14.00" fill="#ffb20f"> &#160;*, *, R &#160;</text>
</g>
<!-- q1&#45;&gt;q1 -->
<g id="edge4" class="edge">
<title>q1&#45;&gt;q1</title>
<path fill="none" stroke="#1a936f" d="M363.335,-661.7385C405.0274,-667.8664 487.7947,-666.3434 487.7947,-657.1696 487.7947,-648.6945 417.1563,-646.7491 373.5226,-651.3334"/>
<polygon fill="#1a936f" stroke="#1a936f" points="372.8265,-647.8929 363.335,-652.6006 373.6905,-654.8394 372.8265,-647.8929"/>
<text text-anchor="middle" x="520.2947" y="-653.4696" font-family="Times,serif" font-size="14.00" fill="#1a936f"> &#160;@, @, R &#160;</text>
</g>
<!-- q2 -->
<g id="node4" class="node">
<title>q2</title>
<ellipse fill="none" stroke="#555555" cx="344.2964" cy="-567.173" rx="19.4965" ry="19.4965"/>
<text text-anchor="middle" x="344.2964" y="-563.473" font-family="Times,serif" font-size="14.00" fill="#555555">q2</text>
</g>
<!-- q1&#45;&gt;q2 -->
<g id="edge5" class="edge">
<title>q1&#45;&gt;q2</title>
<path fill="none" stroke="#555555" d="M344.2964,-637.6416C344.2964,-625.812 344.2964,-610.4805 344.2964,-597.1403"/>
<polygon fill="#555555" stroke="#555555" points="347.7965,-596.9736 344.2964,-586.9736 340.7965,-596.9736 347.7965,-596.9736"/>
<text text-anchor="middle" x="370.7964" y="-608.4713" font-family="Times,serif" font-size="14.00" fill="#555555"> &#160;#, #, R &#160;</text>
</g>
<!-- q2&#45;&gt;q2 -->
<g id="edge7" class="edge">
<title>q2&#45;&gt;q2</title>
<path fill="none" stroke="#ef476f" d="M362.4309,-575.0282C372.5117,-576.4945 381.7947,-573.8761 381.7947,-567.173 381.7947,-562.8788 377.9849,-560.261 372.5963,-559.3196"/>
<polygon fill="#ef476f" stroke="#ef476f" points="372.4315,-555.8196 362.4309,-559.3178 372.4303,-562.8196 372.4315,-555.8196"/>
<text text-anchor="middle" x="408.2947" y="-563.473" font-family="Times,serif" font-size="14.00" fill="#ef476f"> &#160;*, *, R &#160;</text>
</g>
<!-- q3 -->
<g id="node5" class="node">
<title>q3</title>
<ellipse fill="none" stroke="#555555" cx="344.2964" cy="-477.1765" rx="19.4965" ry="19.4965"/>
<text text-anchor="middle" x="344.2964" y="-473.4765" font-family="Times,serif" font-size="14.00" fill="#555555">q3</text>
</g>
<!-- q2&#45;&gt;q3 -->
<g id="edge6" class="edge">
<title>q2&#45;&gt;q3</title>
<path fill="none" stroke="#26547c" d="M344.2964,-547.6451C344.2964,-535.8154 344.2964,-520.484 344.2964,-507.1438"/>
<polygon fill="#26547c" stroke="#26547c" points="347.7965,-506.977 344.2964,-496.9771 340.7965,-506.9771 347.7965,-506.977"/>
<text text-anchor="middle" x="370.7964" y="-518.4747" font-family="Times,serif" font-size="14.00" fill="#26547c"> &#160;1, *, R &#160;</text>
</g>
<!-- q4 -->
<g id="node6" class="node">
<title>q4</title>
<ellipse fill="none" stroke="#555555" cx="67.2964" cy="-376.1309" rx="19.4965" ry="19.4965"/>
<text text-anchor="middle" x="67.2964" y="-372.4309" font-family="Times,serif" font-size="14.00" fill="#555555">q4</text>
</g>
<!-- q3&#45;&gt;q4 -->
<g id="edge8" class="edge">
<title>q3&#45;&gt;q4</title>
<path fill="none" stroke="#ffb20f" d="M325.6916,-470.3897C278.1865,-453.0605 152.1771,-407.0942 95.5515,-386.438"/>
<polygon fill="#ffb20f" stroke="#ffb20f" points="96.4142,-383.0271 85.8203,-382.8882 94.0153,-389.6032 96.4142,-383.0271"/>
<text text-anchor="middle" x="265.2964" y="-428.4782" font-family="Times,serif" font-size="14.00" fill="#ffb20f"> &#160;1, 1, L &#160;</text>
</g>
<!-- qdiv2 -->
<g id="node7" class="node">
<title>qdiv2</title>
<ellipse fill="none" stroke="#555555" cx="446.2964" cy="-264.0363" rx="30.5947" ry="30.5947"/>
<text text-anchor="middle" x="446.2964" y="-260.3363" font-family="Times,serif" font-size="14.00" fill="#555555">qdiv2</text>
</g>
<!-- q3&#45;&gt;qdiv2 -->
<g id="edge9" class="edge">
<title>q3&#45;&gt;qdiv2</title>
<path fill="none" stroke="#1a936f" d="M341.2021,-457.694C337.8973,-430.9105 335.3168,-381.9094 353.2964,-345.5836 365.8821,-320.1556 390.2492,-299.2531 410.8841,-284.978"/>
<polygon fill="#1a936f" stroke="#1a936f" points="413.0699,-287.7276 419.4539,-279.2721 409.1904,-281.9009 413.0699,-287.7276"/>
<text text-anchor="middle" x="379.7964" y="-372.4309" font-family="Times,serif" font-size="14.00" fill="#1a936f"> &#160;#, #, R &#160;</text>
</g>
<!-- qAux -->
<g id="node8" class="node">
<title>qAux</title>
<ellipse fill="none" stroke="#555555" cx="446.2964" cy="-376.1309" rx="30.5947" ry="30.5947"/>
<text text-anchor="middle" x="446.2964" y="-372.4309" font-family="Times,serif" font-size="14.00" fill="#555555">qAux</text>
</g>
<!-- q3&#45;&gt;qAux -->
<g id="edge10" class="edge">
<title>q3&#45;&gt;qAux</title>
<path fill="none" stroke="#555555" d="M358.4791,-463.1265C373.5565,-448.1902 397.8265,-424.1473 417.035,-405.1185"/>
<polygon fill="#555555" stroke="#555555" points="419.7425,-407.363 424.3836,-397.8387 414.8161,-402.39 419.7425,-407.363"/>
<text text-anchor="middle" x="422.7964" y="-428.4782" font-family="Times,serif" font-size="14.00" fill="#555555"> &#160;B, #, R &#160;</text>
</g>
<!-- q4&#45;&gt;q4 -->
<g id="edge14" class="edge">
<title>q4&#45;&gt;q4</title>
<path fill="none" stroke="#1a936f" d="M86.59,-379.5275C96.212,-379.9975 104.7947,-378.8653 104.7947,-376.1309 104.7947,-374.4647 101.6076,-373.3933 96.9404,-372.917"/>
<polygon fill="#1a936f" stroke="#1a936f" points="96.6503,-369.4114 86.59,-372.7343 96.5267,-376.4103 96.6503,-369.4114"/>
<text text-anchor="middle" x="130.7947" y="-372.4309" font-family="Times,serif" font-size="14.00" fill="#1a936f"> &#160;*, *, L &#160;</text>
</g>
<!-- q4&#45;&gt;q4 -->
<g id="edge15" class="edge">
<title>q4&#45;&gt;q4</title>
<path fill="none" stroke="#555555" d="M86.5185,-381.0374C114.3228,-384.9852 156.7947,-383.3497 156.7947,-376.1309 156.7947,-369.7581 123.6939,-367.7367 96.8058,-370.0666"/>
<polygon fill="#555555" stroke="#555555" points="96.0643,-366.6278 86.5185,-371.2244 96.8472,-373.5839 96.0643,-366.6278"/>
<text text-anchor="middle" x="182.7947" y="-372.4309" font-family="Times,serif" font-size="14.00" fill="#555555"> &#160;#, #, L &#160;</text>
</g>
<!-- q4&#45;&gt;q4 -->
<g id="edge16" class="edge">
<title>q4&#45;&gt;q4</title>
<path fill="none" stroke="#26547c" d="M86.1879,-381.946C127.4185,-389.7451 208.7947,-387.8067 208.7947,-376.1309 208.7947,-365.3445 139.3435,-362.8686 96.2548,-368.7031"/>
<polygon fill="#26547c" stroke="#26547c" points="95.5083,-365.278 86.1879,-370.3158 96.6157,-372.1899 95.5083,-365.278"/>
<text text-anchor="middle" x="240.7947" y="-372.4309" font-family="Times,serif" font-size="14.00" fill="#26547c"> &#160;@, @, L &#160;</text>
</g>
<!-- qdiv1 -->
<g id="node9" class="node">
<title>qdiv1</title>
<ellipse fill="none" stroke="#555555" cx="40.2964" cy="-264.0363" rx="30.5947" ry="30.5947"/>
<text text-anchor="middle" x="40.2964" y="-260.3363" font-family="Times,serif" font-size="14.00" fill="#555555">qdiv1</text>
</g>
<!-- q4&#45;&gt;qdiv1 -->
<g id="edge13" class="edge">
<title>q4&#45;&gt;qdiv1</title>
<path fill="none" stroke="#ffb20f" d="M62.7162,-357.1156C59.2126,-342.5695 54.258,-321.9999 49.8972,-303.8953"/>
<polygon fill="#ffb20f" stroke="#ffb20f" points="53.293,-303.0471 47.5486,-294.1447 46.4877,-304.6863 53.293,-303.0471"/>
<text text-anchor="middle" x="85.2964" y="-316.3836" font-family="Times,serif" font-size="14.00" fill="#ffb20f"> &#160;1, @, L &#160;</text>
</g>
<!-- qdiv2&#45;&gt;qdiv2 -->
<g id="edge24" class="edge">
<title>qdiv2&#45;&gt;qdiv2</title>
<path fill="none" stroke="#1a936f" d="M475.2035,-274.5133C485.9762,-274.8568 494.8437,-271.3645 494.8437,-264.0363 494.8437,-259.2273 491.0248,-256.0701 485.3547,-254.5649"/>
<polygon fill="#1a936f" stroke="#1a936f" points="485.4998,-251.0623 475.2035,-253.5594 484.8098,-258.0282 485.4998,-251.0623"/>
<text text-anchor="middle" x="521.3437" y="-260.3363" font-family="Times,serif" font-size="14.00" fill="#1a936f"> &#160;1, 1, R &#160;</text>
</g>
<!-- qdiv3 -->
<g id="node11" class="node">
<title>qdiv3</title>
<ellipse fill="none" stroke="#555555" cx="529.2964" cy="-142.1926" rx="30.5947" ry="30.5947"/>
<text text-anchor="middle" x="529.2964" y="-138.4926" font-family="Times,serif" font-size="14.00" fill="#555555">qdiv3</text>
</g>
<!-- qdiv2&#45;&gt;qdiv3 -->
<g id="edge25" class="edge">
<title>qdiv2&#45;&gt;qdiv3</title>
<path fill="none" stroke="#555555" d="M463.6959,-238.4939C476.0355,-220.3794 492.7255,-195.8786 506.1826,-176.1237"/>
<polygon fill="#555555" stroke="#555555" points="509.1825,-177.9366 511.9198,-167.7014 503.3973,-173.9956 509.1825,-177.9366"/>
<text text-anchor="middle" x="514.7964" y="-204.289" font-family="Times,serif" font-size="14.00" fill="#555555"> &#160;B, 1, L &#160;</text>
</g>
<!-- qAux&#45;&gt;qdiv2 -->
<g id="edge12" class="edge">
<title>qAux&#45;&gt;qdiv2</title>
<path fill="none" stroke="#ef476f" d="M446.2964,-345.5006C446.2964,-332.8966 446.2964,-318.117 446.2964,-304.632"/>
<polygon fill="#ef476f" stroke="#ef476f" points="449.7965,-304.6296 446.2964,-294.6296 442.7965,-304.6297 449.7965,-304.6296"/>
<text text-anchor="middle" x="472.7964" y="-316.3836" font-family="Times,serif" font-size="14.00" fill="#ef476f"> &#160;#, #, R &#160;</text>
</g>
<!-- qAux&#45;&gt;qAux -->
<g id="edge11" class="edge">
<title>qAux&#45;&gt;qAux</title>
<path fill="none" stroke="#26547c" d="M475.2035,-386.6078C485.9762,-386.9513 494.8437,-383.459 494.8437,-376.1309 494.8437,-371.3218 491.0248,-368.1647 485.3547,-366.6595"/>
<polygon fill="#26547c" stroke="#26547c" points="485.4998,-363.1568 475.2035,-365.654 484.8098,-370.1228 485.4998,-363.1568"/>
<text text-anchor="middle" x="523.3437" y="-372.4309" font-family="Times,serif" font-size="14.00" fill="#26547c"> &#160;B, B, L &#160;</text>
</g>
<!-- qdiv1&#45;&gt;q1 -->
<g id="edge17" class="edge">
<title>qdiv1&#45;&gt;q1</title>
<path fill="none" stroke="#ef476f" d="M32.0462,-293.7532C26.537,-316.1986 20.2964,-347.8624 20.2964,-376.1309 20.2964,-567.173 20.2964,-567.173 20.2964,-567.173 20.2964,-627.8089 233.6311,-649.297 314.0824,-655.2446"/>
<polygon fill="#ef476f" stroke="#ef476f" points="314.2943,-658.7682 324.5165,-655.9831 314.7886,-651.7857 314.2943,-658.7682"/>
<text text-anchor="middle" x="46.7964" y="-473.4765" font-family="Times,serif" font-size="14.00" fill="#ef476f"> &#160;1, 1, R &#160;</text>
</g>
<!-- qarruma -->
<g id="node10" class="node">
<title>qarruma</title>
<ellipse fill="none" stroke="#555555" cx="40.2964" cy="-142.1926" rx="40.0939" ry="40.0939"/>
<text text-anchor="middle" x="40.2964" y="-138.4926" font-family="Times,serif" font-size="14.00" fill="#555555">qarruma</text>
</g>
<!-- qdiv1&#45;&gt;qarruma -->
<g id="edge18" class="edge">
<title>qdiv1&#45;&gt;qarruma</title>
<path fill="none" stroke="#ffb20f" d="M40.2964,-233.29C40.2964,-221.0431 40.2964,-206.6196 40.2964,-192.9064"/>
<polygon fill="#ffb20f" stroke="#ffb20f" points="43.7965,-192.6061 40.2964,-182.6061 36.7965,-192.6062 43.7965,-192.6061"/>
<text text-anchor="middle" x="66.7964" y="-204.289" font-family="Times,serif" font-size="14.00" fill="#ffb20f"> &#160;$, $, R &#160;</text>
</g>
<!-- qarruma&#45;&gt;qA -->
<g id="edge23" class="edge">
<title>qarruma&#45;&gt;qA</title>
<path fill="none" stroke="#ffb20f" d="M40.2964,-101.6887C40.2964,-88.5174 40.2964,-74.0027 40.2964,-61.2041"/>
<polygon fill="#ffb20f" stroke="#ffb20f" points="43.7965,-60.9239 40.2964,-50.9239 36.7965,-60.924 43.7965,-60.9239"/>
<text text-anchor="middle" x="67.7964" y="-72.6962" font-family="Times,serif" font-size="14.00" fill="#ffb20f"> &#160;B, 1, R &#160;</text>
</g>
<!-- qarruma&#45;&gt;qarruma -->
<g id="edge19" class="edge">
<title>qarruma&#45;&gt;qarruma</title>
<path fill="none" stroke="#1a936f" d="M80.6201,-145.1567C90.8859,-144.9619 98.5928,-143.9739 98.5928,-142.1926 98.5928,-141.0793 95.5823,-140.2759 90.8181,-139.7823"/>
<polygon fill="#1a936f" stroke="#1a936f" points="90.7952,-136.276 80.6201,-139.2285 90.4156,-143.2657 90.7952,-136.276"/>
<text text-anchor="middle" x="125.0928" y="-138.4926" font-family="Times,serif" font-size="14.00" fill="#1a936f"> &#160;1, 1, R &#160;</text>
</g>
<!-- qarruma&#45;&gt;qarruma -->
<g id="edge20" class="edge">
<title>qarruma&#45;&gt;qarruma</title>
<path fill="none" stroke="#555555" d="M80.2611,-147.5155C113.2817,-149.3107 151.5928,-147.5364 151.5928,-142.1926 151.5928,-137.3916 120.6685,-135.4718 90.4401,-136.4332"/>
<polygon fill="#555555" stroke="#555555" points="90.1019,-132.9444 80.2611,-136.8697 90.4019,-139.938 90.1019,-132.9444"/>
<text text-anchor="middle" x="178.0928" y="-138.4926" font-family="Times,serif" font-size="14.00" fill="#555555"> &#160;*, 1, R &#160;</text>
</g>
<!-- qarruma&#45;&gt;qarruma -->
<g id="edge21" class="edge">
<title>qarruma&#45;&gt;qarruma</title>
<path fill="none" stroke="#26547c" d="M80.0212,-149.0124C130.6332,-153.419 204.5928,-151.1457 204.5928,-142.1926 204.5928,-133.8166 139.8598,-131.287 90.0724,-134.604"/>
<polygon fill="#26547c" stroke="#26547c" points="89.7251,-131.1203 80.0212,-135.3729 90.259,-138.0999 89.7251,-131.1203"/>
<text text-anchor="middle" x="231.0928" y="-138.4926" font-family="Times,serif" font-size="14.00" fill="#26547c"> &#160;#, #, R &#160;</text>
</g>
<!-- qarruma&#45;&gt;qarruma -->
<g id="edge22" class="edge">
<title>qarruma&#45;&gt;qarruma</title>
<path fill="none" stroke="#ef476f" d="M79.9714,-150.1819C145.6058,-157.4807 257.5928,-154.8176 257.5928,-142.1926 257.5928,-130.2087 156.6907,-127.2007 90.3083,-133.1685"/>
<polygon fill="#ef476f" stroke="#ef476f" points="89.573,-129.7245 79.9714,-134.2034 90.2704,-136.6897 89.573,-129.7245"/>
<text text-anchor="middle" x="287.0928" y="-138.4926" font-family="Times,serif" font-size="14.00" fill="#ef476f"> &#160;@, 1, R &#160;</text>
</g>
<!-- qdiv3&#45;&gt;q1 -->
<g id="edge29" class="edge">
<title>qdiv3&#45;&gt;q1</title>
<path fill="none" stroke="#1a936f" d="M546.8477,-167.5264C561.6002,-191.3228 580.2964,-228.4922 580.2964,-264.0363 580.2964,-567.173 580.2964,-567.173 580.2964,-567.173 580.2964,-610.9051 437.0289,-641.1238 373.746,-652.3386"/>
<polygon fill="#1a936f" stroke="#1a936f" points="372.8658,-648.9388 363.6093,-654.0931 374.0597,-655.8363 372.8658,-648.9388"/>
<text text-anchor="middle" x="612.7964" y="-428.4782" font-family="Times,serif" font-size="14.00" fill="#1a936f"> &#160;@, @, R &#160;</text>
</g>
<!-- qdiv3&#45;&gt;qdiv3 -->
<g id="edge26" class="edge">
<title>qdiv3&#45;&gt;qdiv3</title>
<path fill="none" stroke="#26547c" d="M559.6385,-146.1926C569.7525,-146.1926 577.8437,-144.8593 577.8437,-142.1926 577.8437,-140.526 574.6831,-139.3801 569.8434,-138.7551"/>
<polygon fill="#26547c" stroke="#26547c" points="569.816,-135.2484 559.6385,-138.1926 569.4307,-142.2378 569.816,-135.2484"/>
<text text-anchor="middle" x="603.8437" y="-138.4926" font-family="Times,serif" font-size="14.00" fill="#26547c"> &#160;1, 1, L &#160;</text>
</g>
<!-- qdiv3&#45;&gt;qdiv3 -->
<g id="edge27" class="edge">
<title>qdiv3&#45;&gt;qdiv3</title>
<path fill="none" stroke="#ef476f" d="M559.3663,-148.7688C590.2356,-151.968 629.8437,-149.776 629.8437,-142.1926 629.8437,-135.4091 598.1498,-132.9396 569.3685,-134.7841"/>
<polygon fill="#ef476f" stroke="#ef476f" points="569.0416,-131.2991 559.3663,-135.6164 569.6222,-138.275 569.0416,-131.2991"/>
<text text-anchor="middle" x="655.8437" y="-138.4926" font-family="Times,serif" font-size="14.00" fill="#ef476f"> &#160;*, 1, L &#160;</text>
</g>
<!-- qdiv3&#45;&gt;qdiv3 -->
<g id="edge28" class="edge">
<title>qdiv3&#45;&gt;qdiv3</title>
<path fill="none" stroke="#ffb20f" d="M558.9407,-150.3428C605.5574,-157.4406 681.8437,-154.7239 681.8437,-142.1926 681.8437,-130.518 615.6307,-127.3619 568.8829,-132.7244"/>
<polygon fill="#ffb20f" stroke="#ffb20f" points="568.394,-129.2585 558.9407,-134.0424 569.314,-136.1978 568.394,-129.2585"/>
<text text-anchor="middle" x="707.8437" y="-138.4926" font-family="Times,serif" font-size="14.00" fill="#ffb20f"> &#160;#, #, L &#160;</text>
</g>
</g>
</svg>
