<?xml version="1.0" encoding="UTF-8" standalone="no"?>
<!DOCTYPE svg PUBLIC "-//W3C//DTD SVG 1.1//EN"
 "http://www.w3.org/Graphics/SVG/1.1/DTD/svg11.dtd">
<!-- Generated by graphviz version 2.40.1 (20161225.0304)
 -->
<!-- Title: turing_machine Pages: 1 -->
<svg width="643pt" height="951pt"
 viewBox="0.00 0.00 643.00 950.96" xmlns="http://www.w3.org/2000/svg" xmlns:xlink="http://www.w3.org/1999/xlink">
<g id="graph0" class="graph" transform="scale(1 1) rotate(0) translate(4 946.9585)">
<title>turing_machine</title>
<polygon fill="#ffffff" stroke="transparent" points="-4,4 -4,-946.9585 638.9965,-946.9585 638.9965,4 -4,4"/>
<!-- q0 -->
<g id="node1" class="node">
<title>q0</title>
<ellipse fill="#cccccc" stroke="#cccccc" cx="57.4983" cy="-919.4602" rx="19.4968" ry="19.4968"/>
<ellipse fill="none" stroke="#cccccc" cx="57.4983" cy="-919.4602" rx="23.4965" ry="23.4965"/>
<text text-anchor="middle" x="57.4983" y="-915.7602" font-family="Times,serif" font-size="14.00" fill="#000000">q0</text>
</g>
<!-- q1 -->
<g id="node3" class="node">
<title>q1</title>
<ellipse fill="none" stroke="#555555" cx="57.4983" cy="-825.4637" rx="19.4965" ry="19.4965"/>
<text text-anchor="middle" x="57.4983" y="-821.7637" font-family="Times,serif" font-size="14.00" fill="#555555">q1</text>
</g>
<!-- q0&#45;&gt;q1 -->
<g id="edge1" class="edge">
<title>q0&#45;&gt;q1</title>
<path fill="none" stroke="#ffb20f" d="M57.4983,-895.7409C57.4983,-883.504 57.4983,-868.4503 57.4983,-855.4187"/>
<polygon fill="#ffb20f" stroke="#ffb20f" points="60.9984,-855.054 57.4983,-845.054 53.9984,-855.054 60.9984,-855.054"/>
<text text-anchor="middle" x="83.9983" y="-866.7619" font-family="Times,serif" font-size="14.00" fill="#ffb20f"> &#160;$, $, R &#160;</text>
</g>
<!-- qA -->
<g id="node2" class="node">
<title>qA</title>
<ellipse fill="none" stroke="#555555" cx="261.4983" cy="-25.4481" rx="21.4044" ry="21.4044"/>
<ellipse fill="none" stroke="#555555" cx="261.4983" cy="-25.4481" rx="25.3963" ry="25.3963"/>
<text text-anchor="middle" x="261.4983" y="-21.7481" font-family="Times,serif" font-size="14.00" fill="#555555">qA</text>
</g>
<!-- q1&#45;&gt;q1 -->
<g id="edge2" class="edge">
<title>q1&#45;&gt;q1</title>
<path fill="none" stroke="#1a936f" d="M75.6327,-833.3189C85.7135,-834.7852 94.9965,-832.1668 94.9965,-825.4637 94.9965,-821.1695 91.1868,-818.5517 85.7982,-817.6102"/>
<polygon fill="#1a936f" stroke="#1a936f" points="85.6334,-814.1103 75.6327,-817.6084 85.6321,-821.1103 85.6334,-814.1103"/>
<text text-anchor="middle" x="127.4965" y="-821.7637" font-family="Times,serif" font-size="14.00" fill="#1a936f"> &#160;@, @, R &#160;</text>
</g>
<!-- q2 -->
<g id="node4" class="node">
<title>q2</title>
<ellipse fill="none" stroke="#555555" cx="132.4983" cy="-735.4671" rx="19.4965" ry="19.4965"/>
<text text-anchor="middle" x="132.4983" y="-731.7671" font-family="Times,serif" font-size="14.00" fill="#555555">q2</text>
</g>
<!-- q1&#45;&gt;q2 -->
<g id="edge3" class="edge">
<title>q1&#45;&gt;q2</title>
<path fill="none" stroke="#555555" d="M70.221,-810.197C82.0366,-796.0189 99.7922,-774.7129 113.3253,-758.4739"/>
<polygon fill="#555555" stroke="#555555" points="116.2502,-760.4312 119.9634,-750.5084 110.8727,-755.9498 116.2502,-760.4312"/>
<text text-anchor="middle" x="128.9983" y="-776.7654" font-family="Times,serif" font-size="14.00" fill="#555555"> &#160;1, @, R &#160;</text>
</g>
<!-- q2&#45;&gt;q2 -->
<g id="edge4" class="edge">
<title>q2&#45;&gt;q2</title>
<path fill="none" stroke="#26547c" d="M150.6327,-743.3224C160.7135,-744.7887 169.9965,-742.1703 169.9965,-735.4671 169.9965,-731.1729 166.1868,-728.5551 160.7982,-727.6137"/>
<polygon fill="#26547c" stroke="#26547c" points="160.6334,-724.1137 150.6327,-727.6119 160.6321,-731.1137 160.6334,-724.1137"/>
<text text-anchor="middle" x="196.4965" y="-731.7671" font-family="Times,serif" font-size="14.00" fill="#26547c"> &#160;1, 1, R &#160;</text>
</g>
<!-- q3 -->
<g id="node5" class="node">
<title>q3</title>
<ellipse fill="none" stroke="#555555" cx="177.4983" cy="-645.4706" rx="19.4965" ry="19.4965"/>
<text text-anchor="middle" x="177.4983" y="-641.7706" font-family="Times,serif" font-size="14.00" fill="#555555">q3</text>
</g>
<!-- q2&#45;&gt;q3 -->
<g id="edge5" class="edge">
<title>q2&#45;&gt;q3</title>
<path fill="none" stroke="#ef476f" d="M141.3888,-717.6867C147.8604,-704.7441 156.738,-686.9896 164.0711,-672.3239"/>
<polygon fill="#ef476f" stroke="#ef476f" points="167.2843,-673.7236 168.6262,-663.2141 161.0234,-670.593 167.2843,-673.7236"/>
<text text-anchor="middle" x="184.9983" y="-686.7689" font-family="Times,serif" font-size="14.00" fill="#ef476f"> &#160;#, #, R &#160;</text>
</g>
<!-- q3&#45;&gt;q3 -->
<g id="edge6" class="edge">
<title>q3&#45;&gt;q3</title>
<path fill="none" stroke="#ffb20f" d="M195.6327,-653.3258C205.7135,-654.7921 214.9965,-652.1737 214.9965,-645.4706 214.9965,-641.1764 211.1868,-638.5586 205.7982,-637.6171"/>
<polygon fill="#ffb20f" stroke="#ffb20f" points="205.6334,-634.1172 195.6327,-637.6154 205.6321,-641.1172 205.6334,-634.1172"/>
<text text-anchor="middle" x="241.4965" y="-641.7706" font-family="Times,serif" font-size="14.00" fill="#ffb20f"> &#160;*, *, R &#160;</text>
</g>
<!-- qVer1 -->
<g id="node6" class="node">
<title>qVer1</title>
<ellipse fill="none" stroke="#555555" cx="212.4983" cy="-542.4752" rx="32.4942" ry="32.4942"/>
<text text-anchor="middle" x="212.4983" y="-538.7752" font-family="Times,serif" font-size="14.00" fill="#555555">qVer1</text>
</g>
<!-- q3&#45;&gt;qVer1 -->
<g id="edge7" class="edge">
<title>q3&#45;&gt;qVer1</title>
<path fill="none" stroke="#1a936f" d="M183.9178,-626.5796C188.0621,-614.3841 193.6148,-598.044 198.7234,-583.0108"/>
<polygon fill="#1a936f" stroke="#1a936f" points="202.0934,-583.9716 201.9971,-573.3772 195.4657,-581.7193 202.0934,-583.9716"/>
<text text-anchor="middle" x="221.9983" y="-596.7723" font-family="Times,serif" font-size="14.00" fill="#1a936f"> &#160;1, *, R &#160;</text>
</g>
<!-- q5 -->
<g id="node7" class="node">
<title>q5</title>
<ellipse fill="none" stroke="#555555" cx="370.4983" cy="-428.4308" rx="19.4965" ry="19.4965"/>
<text text-anchor="middle" x="370.4983" y="-424.7308" font-family="Times,serif" font-size="14.00" fill="#555555">q5</text>
</g>
<!-- qVer1&#45;&gt;q5 -->
<g id="edge8" class="edge">
<title>qVer1&#45;&gt;q5</title>
<path fill="none" stroke="#555555" d="M244.6497,-536.3059C272.3796,-529.5509 312.0251,-516.2837 338.4983,-491.9781 348.837,-482.4859 356.3021,-468.901 361.4078,-456.7265"/>
<polygon fill="#555555" stroke="#555555" points="364.6832,-457.9601 365.0064,-447.3702 358.1498,-455.4472 364.6832,-457.9601"/>
<text text-anchor="middle" x="376.4983" y="-480.7781" font-family="Times,serif" font-size="14.00" fill="#555555"> &#160;#, #, L &#160;</text>
</g>
<!-- q4 -->
<g id="node8" class="node">
<title>q4</title>
<ellipse fill="none" stroke="#555555" cx="19.4983" cy="-428.4308" rx="19.4965" ry="19.4965"/>
<text text-anchor="middle" x="19.4983" y="-424.7308" font-family="Times,serif" font-size="14.00" fill="#555555">q4</text>
</g>
<!-- qVer1&#45;&gt;q4 -->
<g id="edge9" class="edge">
<title>qVer1&#45;&gt;q4</title>
<path fill="none" stroke="#26547c" d="M184.4344,-525.8922C147.1017,-503.8321 81.6148,-465.1357 45.405,-443.7392"/>
<polygon fill="#26547c" stroke="#26547c" points="46.83,-440.5158 36.4401,-438.4418 43.2688,-446.5423 46.83,-440.5158"/>
<text text-anchor="middle" x="148.4983" y="-480.7781" font-family="Times,serif" font-size="14.00" fill="#26547c"> &#160;1, 1, L &#160;</text>
</g>
<!-- qAux -->
<g id="node13" class="node">
<title>qAux</title>
<ellipse fill="none" stroke="#555555" cx="297.4983" cy="-428.4308" rx="30.5947" ry="30.5947"/>
<text text-anchor="middle" x="297.4983" y="-424.7308" font-family="Times,serif" font-size="14.00" fill="#555555">qAux</text>
</g>
<!-- qVer1&#45;&gt;qAux -->
<g id="edge30" class="edge">
<title>qVer1&#45;&gt;qAux</title>
<path fill="none" stroke="#ef476f" d="M239.1544,-523.5312C249.9463,-514.8557 261.8685,-503.8613 270.4983,-491.9781 275.923,-484.5082 280.5275,-475.7814 284.3142,-467.23"/>
<polygon fill="#ef476f" stroke="#ef476f" points="287.6571,-468.3048 288.2422,-457.7261 281.1878,-465.631 287.6571,-468.3048"/>
<text text-anchor="middle" x="306.9983" y="-480.7781" font-family="Times,serif" font-size="14.00" fill="#ef476f"> &#160;B, #, R &#160;</text>
</g>
<!-- q5&#45;&gt;q5 -->
<g id="edge14" class="edge">
<title>q5&#45;&gt;q5</title>
<path fill="none" stroke="#26547c" d="M389.7919,-431.8274C399.4139,-432.2974 407.9965,-431.1652 407.9965,-428.4308 407.9965,-426.7645 404.8095,-425.6932 400.1423,-425.2169"/>
<polygon fill="#26547c" stroke="#26547c" points="399.8521,-421.7113 389.7919,-425.0342 399.7285,-428.7102 399.8521,-421.7113"/>
<text text-anchor="middle" x="433.9965" y="-424.7308" font-family="Times,serif" font-size="14.00" fill="#26547c"> &#160;1, 1, L &#160;</text>
</g>
<!-- q5&#45;&gt;q5 -->
<g id="edge15" class="edge">
<title>q5&#45;&gt;q5</title>
<path fill="none" stroke="#ef476f" d="M389.7203,-433.3373C417.5246,-437.285 459.9965,-435.6495 459.9965,-428.4308 459.9965,-422.058 426.8957,-420.0365 400.0076,-422.3664"/>
<polygon fill="#ef476f" stroke="#ef476f" points="399.2661,-418.9277 389.7203,-423.5243 400.0491,-425.8838 399.2661,-418.9277"/>
<text text-anchor="middle" x="485.9965" y="-424.7308" font-family="Times,serif" font-size="14.00" fill="#ef476f"> &#160;#, #, L &#160;</text>
</g>
<!-- q5&#45;&gt;q5 -->
<g id="edge16" class="edge">
<title>q5&#45;&gt;q5</title>
<path fill="none" stroke="#ffb20f" d="M389.3897,-434.2459C430.6203,-442.0449 511.9965,-440.1066 511.9965,-428.4308 511.9965,-417.6444 442.5453,-415.1684 399.4567,-421.003"/>
<polygon fill="#ffb20f" stroke="#ffb20f" points="398.7102,-417.5779 389.3897,-422.6157 399.8175,-424.4897 398.7102,-417.5779"/>
<text text-anchor="middle" x="537.9965" y="-424.7308" font-family="Times,serif" font-size="14.00" fill="#ffb20f"> &#160;*, *, L &#160;</text>
</g>
<!-- qVer2 -->
<g id="node9" class="node">
<title>qVer2</title>
<ellipse fill="none" stroke="#555555" cx="330.4983" cy="-314.3864" rx="32.4942" ry="32.4942"/>
<text text-anchor="middle" x="330.4983" y="-310.6864" font-family="Times,serif" font-size="14.00" fill="#555555">qVer2</text>
</g>
<!-- q5&#45;&gt;qVer2 -->
<g id="edge17" class="edge">
<title>q5&#45;&gt;qVer2</title>
<path fill="none" stroke="#1a936f" d="M355.716,-415.1481C346.8668,-406.1743 336.4116,-393.5118 331.4983,-379.8835 328.8969,-372.668 327.5968,-364.7083 327.0929,-356.8973"/>
<polygon fill="#1a936f" stroke="#1a936f" points="330.5893,-356.7016 326.8467,-346.7898 323.5914,-356.8722 330.5893,-356.7016"/>
<text text-anchor="middle" x="363.9983" y="-368.6835" font-family="Times,serif" font-size="14.00" fill="#1a936f"> &#160;@, @, R &#160;</text>
</g>
<!-- q4&#45;&gt;q1 -->
<g id="edge13" class="edge">
<title>q4&#45;&gt;q1</title>
<path fill="none" stroke="#555555" d="M25.3939,-447.1853C31.9105,-469.6116 41.4983,-508.3973 41.4983,-542.4752 41.4983,-735.4671 41.4983,-735.4671 41.4983,-735.4671 41.4983,-756.0998 45.6252,-778.9882 49.6872,-796.5192"/>
<polygon fill="#555555" stroke="#555555" points="46.3952,-797.7919 52.1705,-806.6743 53.1949,-796.1291 46.3952,-797.7919"/>
<text text-anchor="middle" x="73.9983" y="-641.7706" font-family="Times,serif" font-size="14.00" fill="#555555"> &#160;@, @, R &#160;</text>
</g>
<!-- q4&#45;&gt;q4 -->
<g id="edge10" class="edge">
<title>q4&#45;&gt;q4</title>
<path fill="none" stroke="#ef476f" d="M38.7919,-431.8274C48.4139,-432.2974 56.9965,-431.1652 56.9965,-428.4308 56.9965,-426.7645 53.8095,-425.6932 49.1423,-425.2169"/>
<polygon fill="#ef476f" stroke="#ef476f" points="48.8521,-421.7113 38.7919,-425.0342 48.7285,-428.7102 48.8521,-421.7113"/>
<text text-anchor="middle" x="82.9965" y="-424.7308" font-family="Times,serif" font-size="14.00" fill="#ef476f"> &#160;1, 1, L &#160;</text>
</g>
<!-- q4&#45;&gt;q4 -->
<g id="edge11" class="edge">
<title>q4&#45;&gt;q4</title>
<path fill="none" stroke="#ffb20f" d="M38.7203,-433.3373C66.5246,-437.285 108.9965,-435.6495 108.9965,-428.4308 108.9965,-422.058 75.8957,-420.0365 49.0076,-422.3664"/>
<polygon fill="#ffb20f" stroke="#ffb20f" points="48.2661,-418.9277 38.7203,-423.5243 49.0491,-425.8838 48.2661,-418.9277"/>
<text text-anchor="middle" x="134.9965" y="-424.7308" font-family="Times,serif" font-size="14.00" fill="#ffb20f"> &#160;*, *, L &#160;</text>
</g>
<!-- q4&#45;&gt;q4 -->
<g id="edge12" class="edge">
<title>q4&#45;&gt;q4</title>
<path fill="none" stroke="#1a936f" d="M38.3897,-434.2459C79.6203,-442.0449 160.9965,-440.1066 160.9965,-428.4308 160.9965,-417.6444 91.5453,-415.1684 48.4567,-421.003"/>
<polygon fill="#1a936f" stroke="#1a936f" points="47.7102,-417.5779 38.3897,-422.6157 48.8175,-424.4897 47.7102,-417.5779"/>
<text text-anchor="middle" x="186.9965" y="-424.7308" font-family="Times,serif" font-size="14.00" fill="#1a936f"> &#160;#, #, L &#160;</text>
</g>
<!-- q7 -->
<g id="node10" class="node">
<title>q7</title>
<ellipse fill="none" stroke="#555555" cx="261.4983" cy="-211.391" rx="19.4965" ry="19.4965"/>
<text text-anchor="middle" x="261.4983" y="-207.691" font-family="Times,serif" font-size="14.00" fill="#555555">q7</text>
</g>
<!-- qVer2&#45;&gt;q7 -->
<g id="edge18" class="edge">
<title>qVer2&#45;&gt;q7</title>
<path fill="none" stroke="#555555" d="M300.8604,-300.4735C286.5401,-292.0546 270.7115,-279.8385 262.4983,-263.8893 258.9404,-256.9802 257.6412,-248.851 257.4909,-241.0803"/>
<polygon fill="#555555" stroke="#555555" points="260.9973,-240.9847 257.894,-230.8546 254.0028,-240.709 260.9973,-240.9847"/>
<text text-anchor="middle" x="288.4983" y="-252.6893" font-family="Times,serif" font-size="14.00" fill="#555555"> &#160;#, #, L &#160;</text>
</g>
<!-- q6 -->
<g id="node11" class="node">
<title>q6</title>
<ellipse fill="none" stroke="#555555" cx="402.4983" cy="-211.391" rx="19.4965" ry="19.4965"/>
<text text-anchor="middle" x="402.4983" y="-207.691" font-family="Times,serif" font-size="14.00" fill="#555555">q6</text>
</g>
<!-- qVer2&#45;&gt;q6 -->
<g id="edge19" class="edge">
<title>qVer2&#45;&gt;q6</title>
<path fill="none" stroke="#26547c" d="M328.1787,-281.7407C328.8271,-270.5643 331.2599,-258.4736 337.4983,-248.8893 339.9868,-245.066 359.2093,-234.2016 376.11,-225.1452"/>
<polygon fill="#26547c" stroke="#26547c" points="377.9451,-228.1338 385.1393,-220.3561 374.665,-221.9498 377.9451,-228.1338"/>
<text text-anchor="middle" x="366.9983" y="-252.6893" font-family="Times,serif" font-size="14.00" fill="#26547c"> &#160;1, @, R &#160;</text>
</g>
<!-- q7&#45;&gt;q7 -->
<g id="edge24" class="edge">
<title>q7&#45;&gt;q7</title>
<path fill="none" stroke="#26547c" d="M279.6327,-219.2462C289.7135,-220.7125 298.9965,-218.0941 298.9965,-211.391 298.9965,-207.0968 295.1868,-204.479 289.7982,-203.5375"/>
<polygon fill="#26547c" stroke="#26547c" points="289.6334,-200.0376 279.6327,-203.5358 289.6321,-207.0376 289.6334,-200.0376"/>
<text text-anchor="middle" x="327.9965" y="-207.691" font-family="Times,serif" font-size="14.00" fill="#26547c"> &#160;@, 1, L &#160;</text>
</g>
<!-- q8 -->
<g id="node12" class="node">
<title>q8</title>
<ellipse fill="none" stroke="#555555" cx="261.4983" cy="-121.3945" rx="19.4965" ry="19.4965"/>
<text text-anchor="middle" x="261.4983" y="-117.6945" font-family="Times,serif" font-size="14.00" fill="#555555">q8</text>
</g>
<!-- q7&#45;&gt;q8 -->
<g id="edge25" class="edge">
<title>q7&#45;&gt;q8</title>
<path fill="none" stroke="#ef476f" d="M261.4983,-191.8631C261.4983,-180.0334 261.4983,-164.702 261.4983,-151.3618"/>
<polygon fill="#ef476f" stroke="#ef476f" points="264.9984,-151.195 261.4983,-141.195 257.9984,-151.1951 264.9984,-151.195"/>
<text text-anchor="middle" x="287.9983" y="-162.6927" font-family="Times,serif" font-size="14.00" fill="#ef476f"> &#160;$, $, R &#160;</text>
</g>
<!-- q6&#45;&gt;q5 -->
<g id="edge23" class="edge">
<title>q6&#45;&gt;q5</title>
<path fill="none" stroke="#555555" d="M404.6261,-231.0191C407.4592,-262.8924 410.6099,-327.6038 396.4983,-379.8835 394.3259,-387.9315 390.6175,-396.1286 386.6712,-403.4399"/>
<polygon fill="#555555" stroke="#555555" points="383.612,-401.7388 381.6432,-412.1491 389.6742,-405.2387 383.612,-401.7388"/>
<text text-anchor="middle" x="433.9983" y="-310.6864" font-family="Times,serif" font-size="14.00" fill="#555555"> &#160;B, 1, L &#160;</text>
</g>
<!-- q6&#45;&gt;q6 -->
<g id="edge20" class="edge">
<title>q6&#45;&gt;q6</title>
<path fill="none" stroke="#ef476f" d="M422.1762,-214.0739C431.6412,-214.4051 439.9965,-213.5108 439.9965,-211.391 439.9965,-210.0993 436.8939,-209.2626 432.3282,-208.881"/>
<polygon fill="#ef476f" stroke="#ef476f" points="432.2344,-205.379 422.1762,-208.7081 432.1151,-212.378 432.2344,-205.379"/>
<text text-anchor="middle" x="466.4965" y="-207.691" font-family="Times,serif" font-size="14.00" fill="#ef476f"> &#160;1, 1, R &#160;</text>
</g>
<!-- q6&#45;&gt;q6 -->
<g id="edge21" class="edge">
<title>q6&#45;&gt;q6</title>
<path fill="none" stroke="#ffb20f" d="M421.8511,-215.2461C449.9264,-218.3479 492.9965,-217.0629 492.9965,-211.391 492.9965,-206.3616 459.1318,-204.7815 431.8852,-206.6507"/>
<polygon fill="#ffb20f" stroke="#ffb20f" points="431.5048,-203.1705 421.8511,-207.5359 432.12,-210.1434 431.5048,-203.1705"/>
<text text-anchor="middle" x="519.4965" y="-207.691" font-family="Times,serif" font-size="14.00" fill="#ffb20f"> &#160;#, #, R &#160;</text>
</g>
<!-- q6&#45;&gt;q6 -->
<g id="edge22" class="edge">
<title>q6&#45;&gt;q6</title>
<path fill="none" stroke="#1a936f" d="M421.5368,-215.96C463.2293,-222.0878 545.9965,-220.5648 545.9965,-211.391 545.9965,-202.916 475.3581,-200.9706 431.7244,-205.5549"/>
<polygon fill="#1a936f" stroke="#1a936f" points="431.0283,-202.1144 421.5368,-206.822 431.8924,-209.0609 431.0283,-202.1144"/>
<text text-anchor="middle" x="572.4965" y="-207.691" font-family="Times,serif" font-size="14.00" fill="#1a936f"> &#160;*, *, R &#160;</text>
</g>
<!-- q8&#45;&gt;qA -->
<g id="edge29" class="edge">
<title>q8&#45;&gt;qA</title>
<path fill="none" stroke="#26547c" d="M261.4983,-101.5143C261.4983,-89.8795 261.4983,-74.8408 261.4983,-61.2108"/>
<polygon fill="#26547c" stroke="#26547c" points="264.9984,-61.1422 261.4983,-51.1422 257.9984,-61.1423 264.9984,-61.1422"/>
<text text-anchor="middle" x="288.9983" y="-72.6962" font-family="Times,serif" font-size="14.00" fill="#26547c"> &#160;B, 1, R &#160;</text>
</g>
<!-- q8&#45;&gt;q8 -->
<g id="edge26" class="edge">
<title>q8&#45;&gt;q8</title>
<path fill="none" stroke="#ffb20f" d="M281.1762,-124.0773C290.6412,-124.4085 298.9965,-123.5143 298.9965,-121.3945 298.9965,-120.1027 295.8939,-119.266 291.3282,-118.8844"/>
<polygon fill="#ffb20f" stroke="#ffb20f" points="291.2344,-115.3824 281.1762,-118.7116 291.1151,-122.3814 291.2344,-115.3824"/>
<text text-anchor="middle" x="325.4965" y="-117.6945" font-family="Times,serif" font-size="14.00" fill="#ffb20f"> &#160;1, 1, R &#160;</text>
</g>
<!-- q8&#45;&gt;q8 -->
<g id="edge27" class="edge">
<title>q8&#45;&gt;q8</title>
<path fill="none" stroke="#1a936f" d="M280.8511,-125.2496C308.9264,-128.3514 351.9965,-127.0663 351.9965,-121.3945 351.9965,-116.3651 318.1318,-114.785 290.8852,-116.6541"/>
<polygon fill="#1a936f" stroke="#1a936f" points="290.5048,-113.174 280.8511,-117.5394 291.12,-120.1469 290.5048,-113.174"/>
<text text-anchor="middle" x="378.4965" y="-117.6945" font-family="Times,serif" font-size="14.00" fill="#1a936f"> &#160;#, #, R &#160;</text>
</g>
<!-- q8&#45;&gt;q8 -->
<g id="edge28" class="edge">
<title>q8&#45;&gt;q8</title>
<path fill="none" stroke="#555555" d="M280.5368,-125.9635C322.2293,-132.0913 404.9965,-130.5683 404.9965,-121.3945 404.9965,-112.9194 334.3581,-110.974 290.7244,-115.5583"/>
<polygon fill="#555555" stroke="#555555" points="290.0283,-112.1179 280.5368,-116.8255 290.8924,-119.0643 290.0283,-112.1179"/>
<text text-anchor="middle" x="431.4965" y="-117.6945" font-family="Times,serif" font-size="14.00" fill="#555555"> &#160;*, 1, R &#160;</text>
</g>
<!-- qAux&#45;&gt;qVer1 -->
<g id="edge31" class="edge">
<title>qAux&#45;&gt;qVer1</title>
<path fill="none" stroke="#ffb20f" d="M273.7416,-448.3669C268.575,-452.1825 263.0028,-455.9316 257.4983,-458.9781 237.5636,-470.0108 222.4759,-458.2513 209.4983,-476.9781 204.6051,-484.0389 202.8577,-492.6288 202.8265,-501.2326"/>
<polygon fill="#ffb20f" stroke="#ffb20f" points="199.3367,-501.5027 203.4926,-511.2484 206.3212,-501.0381 199.3367,-501.5027"/>
<text text-anchor="middle" x="237.9983" y="-480.7781" font-family="Times,serif" font-size="14.00" fill="#ffb20f"> &#160;B, B, L &#160;</text>
</g>
</g>
</svg>
