<?xml version="1.0" encoding="UTF-8" standalone="no"?>
<!DOCTYPE svg PUBLIC "-//W3C//DTD SVG 1.1//EN"
 "http://www.w3.org/Graphics/SVG/1.1/DTD/svg11.dtd">
<!-- Generated by graphviz version 2.40.1 (20161225.0304)
 -->
<!-- Title: turing_machine Pages: 1 -->
<svg width="554pt" height="697pt"
 viewBox="0.00 0.00 553.95 696.87" xmlns="http://www.w3.org/2000/svg" xmlns:xlink="http://www.w3.org/1999/xlink">
<g id="graph0" class="graph" transform="scale(1 1) rotate(0) translate(4 692.872)">
<title>turing_machine</title>
<polygon fill="#ffffff" stroke="transparent" points="-4,4 -4,-692.872 549.9464,-692.872 549.9464,4 -4,4"/>
<!-- q0 -->
<g id="node1" class="node">
<title>q0</title>
<ellipse fill="#cccccc" stroke="#cccccc" cx="197.4481" cy="-665.3737" rx="19.4968" ry="19.4968"/>
<ellipse fill="none" stroke="#cccccc" cx="197.4481" cy="-665.3737" rx="23.4965" ry="23.4965"/>
<text text-anchor="middle" x="197.4481" y="-661.6737" font-family="Times,serif" font-size="14.00" fill="#000000">q0</text>
</g>
<!-- q1 -->
<g id="node3" class="node">
<title>q1</title>
<ellipse fill="none" stroke="#555555" cx="197.4481" cy="-571.3772" rx="19.4965" ry="19.4965"/>
<text text-anchor="middle" x="197.4481" y="-567.6772" font-family="Times,serif" font-size="14.00" fill="#555555">q1</text>
</g>
<!-- q0&#45;&gt;q1 -->
<g id="edge1" class="edge">
<title>q0&#45;&gt;q1</title>
<path fill="none" stroke="#1a936f" d="M197.4481,-641.6544C197.4481,-629.4175 197.4481,-614.3638 197.4481,-601.3322"/>
<polygon fill="#1a936f" stroke="#1a936f" points="200.9482,-600.9675 197.4481,-590.9675 193.9482,-600.9675 200.9482,-600.9675"/>
<text text-anchor="middle" x="223.9481" y="-612.6754" font-family="Times,serif" font-size="14.00" fill="#1a936f"> &#160;$, $, R &#160;</text>
</g>
<!-- qA -->
<g id="node2" class="node">
<title>qA</title>
<ellipse fill="none" stroke="#555555" cx="25.4481" cy="-25.4481" rx="21.4044" ry="21.4044"/>
<ellipse fill="none" stroke="#555555" cx="25.4481" cy="-25.4481" rx="25.3963" ry="25.3963"/>
<text text-anchor="middle" x="25.4481" y="-21.7481" font-family="Times,serif" font-size="14.00" fill="#555555">qA</text>
</g>
<!-- q1&#45;&gt;q1 -->
<g id="edge2" class="edge">
<title>q1&#45;&gt;q1</title>
<path fill="none" stroke="#555555" d="M217.126,-574.06C226.591,-574.3912 234.9464,-573.497 234.9464,-571.3772 234.9464,-570.0854 231.8437,-569.2487 227.278,-568.8671"/>
<polygon fill="#555555" stroke="#555555" points="227.1842,-565.3651 217.126,-568.6943 227.065,-572.3641 227.1842,-565.3651"/>
<text text-anchor="middle" x="261.4464" y="-567.6772" font-family="Times,serif" font-size="14.00" fill="#555555"> &#160;#, #, R &#160;</text>
</g>
<!-- q1&#45;&gt;q1 -->
<g id="edge3" class="edge">
<title>q1&#45;&gt;q1</title>
<path fill="none" stroke="#26547c" d="M216.8009,-575.2323C244.8763,-578.3341 287.9464,-577.049 287.9464,-571.3772 287.9464,-566.3478 254.0816,-564.7677 226.835,-566.6368"/>
<polygon fill="#26547c" stroke="#26547c" points="226.4546,-563.1567 216.8009,-567.5221 227.0698,-570.1296 226.4546,-563.1567"/>
<text text-anchor="middle" x="320.4464" y="-567.6772" font-family="Times,serif" font-size="14.00" fill="#26547c"> &#160;@, @, R &#160;</text>
</g>
<!-- q1&#45;&gt;q1 -->
<g id="edge4" class="edge">
<title>q1&#45;&gt;q1</title>
<path fill="none" stroke="#ef476f" d="M216.4388,-575.8159C260.548,-582.095 352.9464,-580.6154 352.9464,-571.3772 352.9464,-562.7884 273.0847,-560.9057 226.4104,-565.729"/>
<polygon fill="#ef476f" stroke="#ef476f" points="225.9446,-562.2598 216.4388,-566.9385 226.7875,-569.2088 225.9446,-562.2598"/>
<text text-anchor="middle" x="379.4464" y="-567.6772" font-family="Times,serif" font-size="14.00" fill="#ef476f"> &#160;1, 1, R &#160;</text>
</g>
<!-- q2 -->
<g id="node4" class="node">
<title>q2</title>
<ellipse fill="none" stroke="#555555" cx="197.4481" cy="-481.3806" rx="19.4965" ry="19.4965"/>
<text text-anchor="middle" x="197.4481" y="-477.6806" font-family="Times,serif" font-size="14.00" fill="#555555">q2</text>
</g>
<!-- q1&#45;&gt;q2 -->
<g id="edge5" class="edge">
<title>q1&#45;&gt;q2</title>
<path fill="none" stroke="#ffb20f" d="M197.4481,-551.8493C197.4481,-540.0196 197.4481,-524.6881 197.4481,-511.3479"/>
<polygon fill="#ffb20f" stroke="#ffb20f" points="200.9482,-511.1812 197.4481,-501.1812 193.9482,-511.1812 200.9482,-511.1812"/>
<text text-anchor="middle" x="225.9481" y="-522.6789" font-family="Times,serif" font-size="14.00" fill="#ffb20f"> &#160;B, B, L &#160;</text>
</g>
<!-- q2&#45;&gt;q2 -->
<g id="edge6" class="edge">
<title>q2&#45;&gt;q2</title>
<path fill="none" stroke="#1a936f" d="M215.5826,-489.2358C225.6633,-490.7022 234.9464,-488.0837 234.9464,-481.3806 234.9464,-477.0864 231.1366,-474.4686 225.748,-473.5272"/>
<polygon fill="#1a936f" stroke="#1a936f" points="225.5832,-470.0272 215.5826,-473.5254 225.5819,-477.0272 225.5832,-470.0272"/>
<text text-anchor="middle" x="260.9464" y="-477.6806" font-family="Times,serif" font-size="14.00" fill="#1a936f"> &#160;1, 1, L &#160;</text>
</g>
<!-- q3 -->
<g id="node5" class="node">
<title>q3</title>
<ellipse fill="none" stroke="#555555" cx="94.4481" cy="-391.3841" rx="19.4965" ry="19.4965"/>
<text text-anchor="middle" x="94.4481" y="-387.6841" font-family="Times,serif" font-size="14.00" fill="#555555">q3</text>
</g>
<!-- q2&#45;&gt;q3 -->
<g id="edge7" class="edge">
<title>q2&#45;&gt;q3</title>
<path fill="none" stroke="#555555" d="M182.6907,-468.4863C165.4815,-453.4497 136.8508,-428.4335 116.8848,-410.9882"/>
<polygon fill="#555555" stroke="#555555" points="119.0115,-408.1986 109.1781,-404.2545 114.4056,-413.4699 119.0115,-408.1986"/>
<text text-anchor="middle" x="178.4481" y="-432.6824" font-family="Times,serif" font-size="14.00" fill="#555555"> &#160;#, #, L &#160;</text>
</g>
<!-- q3&#45;&gt;q3 -->
<g id="edge8" class="edge">
<title>q3&#45;&gt;q3</title>
<path fill="none" stroke="#26547c" d="M113.7417,-395.3872C123.3637,-395.9411 131.9464,-394.6067 131.9464,-391.3841 131.9464,-389.4203 128.7593,-388.1577 124.0921,-387.5962"/>
<polygon fill="#26547c" stroke="#26547c" points="123.8124,-384.0897 113.7417,-387.3809 123.6667,-391.0882 123.8124,-384.0897"/>
<text text-anchor="middle" x="157.9464" y="-387.6841" font-family="Times,serif" font-size="14.00" fill="#26547c"> &#160;#, #, L &#160;</text>
</g>
<!-- q3&#45;&gt;q3 -->
<g id="edge9" class="edge">
<title>q3&#45;&gt;q3</title>
<path fill="none" stroke="#ef476f" d="M113.25,-397.0957C141.0444,-401.8387 183.9464,-399.9349 183.9464,-391.3841 183.9464,-383.8019 150.2138,-381.4461 123.193,-384.3164"/>
<polygon fill="#ef476f" stroke="#ef476f" points="122.6853,-380.8532 113.25,-385.6724 123.6313,-387.789 122.6853,-380.8532"/>
<text text-anchor="middle" x="215.9464" y="-387.6841" font-family="Times,serif" font-size="14.00" fill="#ef476f"> &#160;@, @, L &#160;</text>
</g>
<!-- q5 -->
<g id="node6" class="node">
<title>q5</title>
<ellipse fill="none" stroke="#555555" cx="25.4481" cy="-301.3875" rx="19.4965" ry="19.4965"/>
<text text-anchor="middle" x="25.4481" y="-297.6875" font-family="Times,serif" font-size="14.00" fill="#555555">q5</text>
</g>
<!-- q3&#45;&gt;q5 -->
<g id="edge10" class="edge">
<title>q3&#45;&gt;q5</title>
<path fill="none" stroke="#ffb20f" d="M82.4292,-375.7079C71.7436,-361.7706 55.9615,-341.1861 43.7146,-325.2125"/>
<polygon fill="#ffb20f" stroke="#ffb20f" points="46.1913,-322.6905 37.3292,-316.8841 40.6362,-326.9496 46.1913,-322.6905"/>
<text text-anchor="middle" x="90.9481" y="-342.6858" font-family="Times,serif" font-size="14.00" fill="#ffb20f"> &#160;$, $, R &#160;</text>
</g>
<!-- q4 -->
<g id="node9" class="node">
<title>q4</title>
<ellipse fill="none" stroke="#555555" cx="301.4481" cy="-301.3875" rx="19.4965" ry="19.4965"/>
<text text-anchor="middle" x="301.4481" y="-297.6875" font-family="Times,serif" font-size="14.00" fill="#555555">q4</text>
</g>
<!-- q3&#45;&gt;q4 -->
<g id="edge17" class="edge">
<title>q3&#45;&gt;q4</title>
<path fill="none" stroke="#555555" d="M112.8921,-384.2022C156.901,-367.049 264.9663,-324.824 272.4481,-320.8858 273.9614,-320.0893 275.493,-319.2318 277.0206,-318.3363"/>
<polygon fill="#555555" stroke="#555555" points="278.9715,-321.244 285.5694,-312.9544 275.2421,-315.3202 278.9715,-321.244"/>
<text text-anchor="middle" x="254.9481" y="-342.6858" font-family="Times,serif" font-size="14.00" fill="#555555"> &#160;1, @, R &#160;</text>
</g>
<!-- q5&#45;&gt;q5 -->
<g id="edge11" class="edge">
<title>q5&#45;&gt;q5</title>
<path fill="none" stroke="#1a936f" d="M45.126,-304.0704C54.591,-304.4016 62.9464,-303.5073 62.9464,-301.3875 62.9464,-300.0958 59.8437,-299.2591 55.278,-298.8775"/>
<polygon fill="#1a936f" stroke="#1a936f" points="55.1842,-295.3755 45.126,-298.7047 55.065,-302.3745 55.1842,-295.3755"/>
<text text-anchor="middle" x="89.4464" y="-297.6875" font-family="Times,serif" font-size="14.00" fill="#1a936f"> &#160;#, #, R &#160;</text>
</g>
<!-- q5&#45;&gt;q5 -->
<g id="edge12" class="edge">
<title>q5&#45;&gt;q5</title>
<path fill="none" stroke="#555555" d="M44.8009,-305.2426C72.8763,-308.3445 115.9464,-307.0594 115.9464,-301.3875 115.9464,-296.3582 82.0816,-294.7781 54.835,-296.6472"/>
<polygon fill="#555555" stroke="#555555" points="54.4546,-293.1671 44.8009,-297.5324 55.0698,-300.14 54.4546,-293.1671"/>
<text text-anchor="middle" x="145.4464" y="-297.6875" font-family="Times,serif" font-size="14.00" fill="#555555"> &#160;@, 1, R &#160;</text>
</g>
<!-- q5&#45;&gt;q5 -->
<g id="edge13" class="edge">
<title>q5&#45;&gt;q5</title>
<path fill="none" stroke="#26547c" d="M44.6259,-305.9134C87.5982,-312.0915 174.9464,-310.5829 174.9464,-301.3875 174.9464,-292.8567 99.7666,-290.9418 54.5877,-295.6428"/>
<polygon fill="#26547c" stroke="#26547c" points="54.1267,-292.173 44.6259,-296.8617 54.977,-299.1211 54.1267,-292.173"/>
<text text-anchor="middle" x="201.4464" y="-297.6875" font-family="Times,serif" font-size="14.00" fill="#26547c"> &#160;1, 1, R &#160;</text>
</g>
<!-- q6 -->
<g id="node7" class="node">
<title>q6</title>
<ellipse fill="none" stroke="#555555" cx="25.4481" cy="-211.391" rx="19.4965" ry="19.4965"/>
<text text-anchor="middle" x="25.4481" y="-207.691" font-family="Times,serif" font-size="14.00" fill="#555555">q6</text>
</g>
<!-- q5&#45;&gt;q6 -->
<g id="edge14" class="edge">
<title>q5&#45;&gt;q6</title>
<path fill="none" stroke="#ef476f" d="M25.4481,-281.8596C25.4481,-270.03 25.4481,-254.6985 25.4481,-241.3583"/>
<polygon fill="#ef476f" stroke="#ef476f" points="28.9482,-241.1916 25.4481,-231.1916 21.9482,-241.1916 28.9482,-241.1916"/>
<text text-anchor="middle" x="53.9481" y="-252.6893" font-family="Times,serif" font-size="14.00" fill="#ef476f"> &#160;B, B, L &#160;</text>
</g>
<!-- q7 -->
<g id="node8" class="node">
<title>q7</title>
<ellipse fill="none" stroke="#555555" cx="25.4481" cy="-121.3945" rx="19.4965" ry="19.4965"/>
<text text-anchor="middle" x="25.4481" y="-117.6945" font-family="Times,serif" font-size="14.00" fill="#555555">q7</text>
</g>
<!-- q6&#45;&gt;q7 -->
<g id="edge15" class="edge">
<title>q6&#45;&gt;q7</title>
<path fill="none" stroke="#ffb20f" d="M25.4481,-191.8631C25.4481,-180.0334 25.4481,-164.702 25.4481,-151.3618"/>
<polygon fill="#ffb20f" stroke="#ffb20f" points="28.9482,-151.195 25.4481,-141.195 21.9482,-151.1951 28.9482,-151.195"/>
<text text-anchor="middle" x="52.9481" y="-162.6927" font-family="Times,serif" font-size="14.00" fill="#ffb20f"> &#160;1, B, R &#160;</text>
</g>
<!-- q7&#45;&gt;qA -->
<g id="edge16" class="edge">
<title>q7&#45;&gt;qA</title>
<path fill="none" stroke="#1a936f" d="M25.4481,-101.5143C25.4481,-89.8795 25.4481,-74.8408 25.4481,-61.2108"/>
<polygon fill="#1a936f" stroke="#1a936f" points="28.9482,-61.1422 25.4481,-51.1422 21.9482,-61.1423 28.9482,-61.1422"/>
<text text-anchor="middle" x="53.9481" y="-72.6962" font-family="Times,serif" font-size="14.00" fill="#1a936f"> &#160;B, B, L &#160;</text>
</g>
<!-- q4&#45;&gt;q2 -->
<g id="edge21" class="edge">
<title>q4&#45;&gt;q2</title>
<path fill="none" stroke="#1a936f" d="M300.0637,-320.8711C297.6928,-343.8236 291.3352,-382.4277 274.4481,-410.8824 261.4509,-432.7826 239.525,-451.8799 222.387,-464.6537"/>
<polygon fill="#1a936f" stroke="#1a936f" points="220.0051,-462.0557 213.934,-470.7385 224.0947,-467.7369 220.0051,-462.0557"/>
<text text-anchor="middle" x="317.9481" y="-387.6841" font-family="Times,serif" font-size="14.00" fill="#1a936f"> &#160;B, 1, L &#160;</text>
</g>
<!-- q4&#45;&gt;q4 -->
<g id="edge18" class="edge">
<title>q4&#45;&gt;q4</title>
<path fill="none" stroke="#26547c" d="M321.126,-304.0704C330.591,-304.4016 338.9464,-303.5073 338.9464,-301.3875 338.9464,-300.0958 335.8437,-299.2591 331.278,-298.8775"/>
<polygon fill="#26547c" stroke="#26547c" points="331.1842,-295.3755 321.126,-298.7047 331.065,-302.3745 331.1842,-295.3755"/>
<text text-anchor="middle" x="365.4464" y="-297.6875" font-family="Times,serif" font-size="14.00" fill="#26547c"> &#160;#, #, R &#160;</text>
</g>
<!-- q4&#45;&gt;q4 -->
<g id="edge19" class="edge">
<title>q4&#45;&gt;q4</title>
<path fill="none" stroke="#ef476f" d="M320.8009,-305.2426C348.8763,-308.3445 391.9464,-307.0594 391.9464,-301.3875 391.9464,-296.3582 358.0816,-294.7781 330.835,-296.6472"/>
<polygon fill="#ef476f" stroke="#ef476f" points="330.4546,-293.1671 320.8009,-297.5324 331.0698,-300.14 330.4546,-293.1671"/>
<text text-anchor="middle" x="424.4464" y="-297.6875" font-family="Times,serif" font-size="14.00" fill="#ef476f"> &#160;@, @, R &#160;</text>
</g>
<!-- q4&#45;&gt;q4 -->
<g id="edge20" class="edge">
<title>q4&#45;&gt;q4</title>
<path fill="none" stroke="#ffb20f" d="M320.4388,-305.8262C364.548,-312.1054 456.9464,-310.6258 456.9464,-301.3875 456.9464,-292.7988 377.0847,-290.9161 330.4104,-295.7394"/>
<polygon fill="#ffb20f" stroke="#ffb20f" points="329.9446,-292.2702 320.4388,-296.9488 330.7875,-299.2192 329.9446,-292.2702"/>
<text text-anchor="middle" x="483.4464" y="-297.6875" font-family="Times,serif" font-size="14.00" fill="#ffb20f"> &#160;1, 1, R &#160;</text>
</g>
</g>
</svg>
